<?xml version="1.0" encoding="UTF-8"?>
<!-- 方壶 (square pot with lid), 春秋; 莲鹤方壶 reference; 故宫/河南博物院藏. viewBox 100x100. -->
<svg xmlns="http://www.w3.org/2000/svg" viewBox="0 0 100 100" preserveAspectRatio="xMidYMid meet">
  <!-- standing crane on top + lotus-petal lid + square body with two side handles + ring foot -->
  <path fill="#a4732c" fill-rule="evenodd" d="
    M 46 2 Q 50 0 54 2 L 56 8 L 54 10 L 56 14 L 58 14
       L 60 18 L 58 20 L 48 20 L 46 18 L 48 14 L 52 12 L 50 8 Z
    M 30 22 L 70 22 L 68 26 L 64 28 L 60 26 L 56 28 L 52 26 L 48 28 L 44 26 L 40 28 L 36 26 L 32 28 Z
    M 32 30 L 68 30 L 70 34 L 68 38 L 70 44
       L 72 70 L 70 78
       L 76 80 L 76 84 L 74 88 L 26 88 L 24 84 L 24 80 L 30 78
       L 28 70 L 30 44 L 32 38 L 30 34 Z
    M 22 44 L 28 44 L 28 64 L 22 64 Z
    M 72 44 L 78 44 L 78 64 L 72 64 Z
    M 28 88 L 72 88 L 74 96 L 26 96 Z
  "/>
</svg>
