<svg xmlns="http://www.w3.org/2000/svg" width="500" height="800" viewBox="0 0 500 800">
<defs>
<linearGradient id="bg" x1="0" y1="0" x2="0.3" y2="1"><stop offset="0" stop-color="#16203B"/><stop offset="1" stop-color="#0D1326"/></linearGradient>
<linearGradient id="fill" x1="0" y1="0" x2="1" y2="0"><stop offset="0" stop-color="#1E3556"/><stop offset="1" stop-color="#4D9FEC"/></linearGradient>
<radialGradient id="needleGlow" cx="0.5" cy="0.5" r="0.5"><stop offset="0" stop-color="#7FBEFF" stop-opacity="0.5"/><stop offset="1" stop-color="#4D9FEC" stop-opacity="0"/></radialGradient>
</defs>
<rect width="500" height="800" fill="url(#bg)"/>
<rect x="0.5" y="0.5" width="499" height="799" fill="none" stroke="#26314E" stroke-width="1"/>

<text x="40" y="52" font-size="12" letter-spacing="3" fill="#6E7790" font-family="ui-monospace, Menlo, monospace">自主与信号</text>
<text x="460" y="52" text-anchor="end" font-size="12" letter-spacing="3" fill="#6E7790" font-family="ui-monospace, Menlo, monospace">PLATE No.4 · AUTONOMY</text>
<line x1="40" y1="68" x2="460" y2="68" stroke="#2A3350" stroke-width="1"/>

<text x="40" y="146" font-size="60" font-weight="700" fill="#F2EFE6" font-family="Songti SC, Noto Serif SC, STSong, serif">自主的尺度</text>
<rect x="42" y="168" width="64" height="5" fill="#4D9FEC"/>
<text x="40" y="212" font-size="19" fill="#4D9FEC" font-family="PingFang SC, Noto Sans SC, sans-serif">Agent 自主性的边界与刻度</text>
<text x="40" y="238" font-size="12" letter-spacing="1" fill="#6E7790" font-family="ui-monospace, Menlo, monospace">THE SCALE OF AUTONOMY — WHERE CONTROL ENDS</text>

<g font-family="ui-monospace, Menlo, monospace">
<text x="44" y="300" font-size="11" letter-spacing="2" fill="#8E97B3">人工操作 / MANUAL</text>
<text x="456" y="300" text-anchor="end" font-size="11" letter-spacing="2" fill="#4D9FEC">全自主 / FULL</text>

<rect x="206" y="244" width="170" height="20" rx="3" fill="#13203A" stroke="#33507F" stroke-width="1"/>
<text x="291" y="258" font-size="10" letter-spacing="2" fill="#7FBEFF" text-anchor="middle">THE BOUNDARY · 控制权交接</text>

<line x1="291" y1="266" x2="291" y2="392" stroke="#4D9FEC" stroke-width="1" stroke-dasharray="2 4" opacity="0.6"/>

<rect x="44" y="318" width="412" height="14" rx="7" fill="#1A2238" stroke="#2A3350" stroke-width="1"/>
<rect x="44" y="318" width="247" height="14" rx="7" fill="url(#fill)"/>

<g stroke="#33405F" stroke-width="1.5">
<line x1="44" y1="312" x2="44" y2="338"/>
<line x1="126" y1="312" x2="126" y2="338"/>
<line x1="209" y1="312" x2="209" y2="338"/>
<line x1="373" y1="312" x2="373" y2="338"/>
<line x1="456" y1="312" x2="456" y2="338"/>
</g>

<g stroke="#283353" stroke-width="1">
<line x1="64.6" y1="320" x2="64.6" y2="330"/><line x1="85.2" y1="320" x2="85.2" y2="330"/><line x1="105.8" y1="320" x2="105.8" y2="330"/>
<line x1="146.6" y1="320" x2="146.6" y2="330"/><line x1="167.2" y1="320" x2="167.2" y2="330"/><line x1="187.8" y1="320" x2="187.8" y2="330"/>
<line x1="229.6" y1="320" x2="229.6" y2="330"/><line x1="250.2" y1="320" x2="250.2" y2="330"/><line x1="270.8" y1="320" x2="270.8" y2="330"/>
<line x1="311.6" y1="320" x2="311.6" y2="330"/><line x1="332.2" y1="320" x2="332.2" y2="330"/><line x1="352.8" y1="320" x2="352.8" y2="330"/>
<line x1="393.6" y1="320" x2="393.6" y2="330"/><line x1="414.2" y1="320" x2="414.2" y2="330"/><line x1="434.8" y1="320" x2="434.8" y2="330"/>
</g>

<g font-size="12" fill="#8E97B3" text-anchor="middle">
<text x="44" y="356">L0</text>
<text x="126" y="356">L1</text>
<text x="209" y="356">L2</text>
<text x="373" y="356">L4</text>
<text x="456" y="356">L5</text>
</g>

<g font-size="9.5" fill="#566688" text-anchor="middle" font-family="PingFang SC, Noto Sans SC, sans-serif">
<text x="44" y="372">执行</text>
<text x="126" y="372">建议</text>
<text x="209" y="372">协同</text>
<text x="373" y="372">监督</text>
<text x="456" y="372">放手</text>
</g>

<circle cx="291" cy="325" r="46" fill="url(#needleGlow)"/>
<line x1="291" y1="272" x2="291" y2="319" stroke="#7FBEFF" stroke-width="2.5"/>
<polygon points="291,332 284,316 298,316" fill="#7FBEFF"/>
<circle cx="291" cy="325" r="6" fill="#0D1326" stroke="#7FBEFF" stroke-width="2.5"/>
<text x="291" y="356" font-size="13" font-weight="700" fill="#7FBEFF" text-anchor="middle">L3</text>
<text x="291" y="372" font-size="9.5" fill="#7FBEFF" text-anchor="middle" font-family="PingFang SC, Noto Sans SC, sans-serif">边界</text>
</g>

<g font-family="ui-monospace, Menlo, monospace">
<text x="40" y="428" font-size="11" letter-spacing="1.5" fill="#6E7790">越往右 →  权限扩大 · 监督收缩 · 风险上移</text>
<line x1="40" y1="440" x2="460" y2="440" stroke="#202B47" stroke-width="1"/>

<text x="40" y="476" font-size="11.5" fill="#9BA3BC" font-family="PingFang SC, Noto Sans SC, sans-serif">人类监督</text>
<text x="40" y="490" font-size="9" fill="#4E5E80">HUMAN OVERSIGHT</text>
<rect x="150" y="466" width="310" height="9" rx="4.5" fill="#1A2238" stroke="#2A3350" stroke-width="1"/>
<rect x="150" y="466" width="186" height="9" rx="4.5" fill="#3C5A86"/>

<text x="40" y="516" font-size="11.5" fill="#9BA3BC" font-family="PingFang SC, Noto Sans SC, sans-serif">模型自主权</text>
<text x="40" y="530" font-size="9" fill="#4E5E80">AGENT AUTHORITY</text>
<rect x="150" y="506" width="310" height="9" rx="4.5" fill="#1A2238" stroke="#2A3350" stroke-width="1"/>
<rect x="274" y="506" width="186" height="9" rx="4.5" fill="#4D9FEC"/>

<text x="40" y="556" font-size="11.5" fill="#9BA3BC" font-family="PingFang SC, Noto Sans SC, sans-serif">失误代价</text>
<text x="40" y="570" font-size="9" fill="#4E5E80">COST OF ERROR</text>
<rect x="150" y="546" width="310" height="9" rx="4.5" fill="#1A2238" stroke="#2A3350" stroke-width="1"/>
<rect x="235" y="546" width="225" height="9" rx="4.5" fill="#7E6CA0"/>

<line x1="336" y1="461" x2="336" y2="560" stroke="#4D9FEC" stroke-width="1" stroke-dasharray="2 3" opacity="0.45"/>
<text x="336" y="592" font-size="9.5" letter-spacing="1" fill="#7FBEFF" text-anchor="middle">L3 临界点</text>
</g>

<line x1="40" y1="620" x2="460" y2="620" stroke="#202B47" stroke-width="1"/>
<text x="40" y="652" font-size="15" fill="#C9CEDE" font-family="Songti SC, Noto Serif SC, STSong, serif">自主不是开关，而是一把可停在任意刻度的尺。</text>
<text x="40" y="676" font-size="11" letter-spacing="1.5" fill="#4E5E80" font-family="ui-monospace, Menlo, monospace">AUTONOMY IS A DIAL, NOT A SWITCH.</text>

<line x1="40" y1="704" x2="460" y2="704" stroke="#2A3350" stroke-width="1"/>
<text x="40" y="736" font-size="13" fill="#8E97B3" font-family="ui-monospace, Menlo, monospace">概念信息图 · 中篇 · 2026</text>
<text x="40" y="762" font-size="13" fill="#6E7790" font-family="PingFang SC, Noto Sans SC, sans-serif">Rick × Claude</text>
<text x="460" y="762" text-anchor="end" font-size="11" letter-spacing="2" fill="#3E486A" font-family="ui-monospace, Menlo, monospace">SCALE · 1:1</text>
</svg>
