<svg xmlns="http://www.w3.org/2000/svg" width="500" height="800" viewBox="0 0 500 800">
  <defs>
    <linearGradient id="bg" x1="0" y1="0" x2="0" y2="1">
      <stop offset="0" stop-color="#19223C"/>
      <stop offset="0.55" stop-color="#121A30"/>
      <stop offset="1" stop-color="#0D1124"/>
    </linearGradient>
    <linearGradient id="spec" x1="0" y1="0" x2="0" y2="1">
      <stop offset="0" stop-color="#5FD0C0" stop-opacity="0.16"/>
      <stop offset="1" stop-color="#5FD0C0" stop-opacity="0.03"/>
    </linearGradient>
    <radialGradient id="vig" cx="0.5" cy="0.46" r="0.62">
      <stop offset="0.6" stop-color="#000000" stop-opacity="0"/>
      <stop offset="1" stop-color="#000000" stop-opacity="0.28"/>
    </radialGradient>
  </defs>

  <rect width="500" height="800" fill="url(#bg)"/>

  <!-- faint blueprint grid -->
  <g stroke="#2A3350" stroke-width="0.5" opacity="0.35">
    <line x1="100" y1="262" x2="100" y2="688"/>
    <line x1="400" y1="262" x2="400" y2="688"/>
    <line x1="40" y1="380" x2="460" y2="380"/>
    <line x1="40" y1="560" x2="460" y2="560"/>
  </g>

  <!-- top meta bar -->
  <text x="40" y="54" font-size="12" letter-spacing="3" fill="#6E7790" font-family="ui-monospace, Menlo, monospace">记忆机制</text>
  <text x="460" y="54" text-anchor="end" font-size="12" letter-spacing="3" fill="#6E7790" font-family="ui-monospace, Menlo, monospace">PLATE No.2 · 解剖标本</text>
  <line x1="40" y1="70" x2="460" y2="70" stroke="#2A3350" stroke-width="1"/>

  <!-- title -->
  <text x="40" y="138" font-size="60" font-weight="700" fill="#F2EFE6" font-family="Songti SC, Noto Serif SC, STSong, serif">记忆</text>
  <text x="40" y="204" font-size="42" font-weight="700" fill="#F2EFE6" font-family="Songti SC, Noto Serif SC, STSong, serif">一个词的解剖</text>
  <rect x="42" y="222" width="64" height="5" fill="#5FD0C0"/>
  <text x="40" y="256" font-size="17" fill="#5FD0C0" font-family="PingFang SC, Noto Sans SC, sans-serif">同一个词，在认知科学与 LLM 里的两种身体</text>

  <!-- ============ CENTRAL MOTIF  y≈285–665 ============ -->
  <g font-family="ui-monospace, Menlo, monospace">

    <!-- side captions -->
    <text x="150" y="300" text-anchor="middle" font-size="11.5" letter-spacing="2" fill="#9BE4D8" font-family="PingFang SC, Noto Sans SC, sans-serif">认知科学 · 身体 A</text>
    <text x="350" y="300" text-anchor="middle" font-size="11.5" letter-spacing="2" fill="#9BE4D8" font-family="PingFang SC, Noto Sans SC, sans-serif">LLM · 身体 B</text>
    <text x="150" y="316" text-anchor="middle" font-size="9.5" letter-spacing="1.5" fill="#5E6B8C">SPECIMEN · LAT.</text>
    <text x="350" y="316" text-anchor="middle" font-size="9.5" letter-spacing="1.5" fill="#5E6B8C">SPECIMEN · MED.</text>

    <!-- dissection midline -->
    <line x1="250" y1="328" x2="250" y2="652" stroke="#39456A" stroke-width="1" stroke-dasharray="2 4"/>
    <text x="250" y="672" text-anchor="middle" font-size="9" letter-spacing="2" fill="#5E6B8C">同词 · 异体</text>

    <!-- ===== LEFT SPECIMEN: cognitive body (silhouette) ===== -->
    <path d="M150 332
             C124 332 116 350 116 370
             C116 388 128 398 128 412
             L122 470 L120 540 L126 600 L138 636
             L150 648 L162 636 L174 600 L180 540 L178 470 L172 412
             C172 398 184 388 184 370
             C184 350 176 332 150 332 Z"
          fill="url(#spec)" stroke="#5FD0C0" stroke-width="1.4" opacity="0.92"/>

    <!-- ===== RIGHT SPECIMEN: LLM body (same silhouette, mirrored, dashed = synthetic) ===== -->
    <path d="M350 332
             C324 332 316 350 316 370
             C316 388 328 398 328 412
             L322 470 L320 540 L326 600 L338 636
             L350 648 L362 636 L374 600 L380 540 L378 470 L372 412
             C372 398 384 388 384 370
             C384 350 376 332 350 332 Z"
          fill="url(#spec)" stroke="#5FD0C0" stroke-width="1.2" stroke-dasharray="3 3" opacity="0.85"/>

    <!-- ORGAN 1 — encoding (head)  ~y358 -->
    <circle cx="150" cy="366" r="6.5" fill="#5FD0C0"/>
    <circle cx="350" cy="366" r="6.5" fill="none" stroke="#5FD0C0" stroke-width="1.4" stroke-dasharray="2.5 2.5"/>
    <!-- cross-map link -->
    <path d="M158 366 H342" stroke="#5FD0C0" stroke-width="0.8" stroke-dasharray="1 5" opacity="0.5"/>
    <!-- callouts -->
    <line x1="116" y1="366" x2="64" y2="366" stroke="#5FD0C0" stroke-width="0.8" opacity="0.7"/>
    <circle cx="64" cy="366" r="2" fill="#5FD0C0"/>
    <text x="60" y="362" text-anchor="end" font-size="11" fill="#CFE9E3" font-family="PingFang SC, Noto Sans SC, sans-serif">编码</text>
    <text x="60" y="376" text-anchor="end" font-size="8.5" fill="#6E7790">感官→突触</text>
    <line x1="384" y1="366" x2="436" y2="366" stroke="#5FD0C0" stroke-width="0.8" opacity="0.7"/>
    <circle cx="436" cy="366" r="2" fill="#5FD0C0"/>
    <text x="440" y="362" font-size="11" fill="#CFE9E3" font-family="PingFang SC, Noto Sans SC, sans-serif">编码</text>
    <text x="440" y="376" font-size="8.5" fill="#6E7790">token→权重</text>

    <!-- ORGAN 2 — consolidation (chest)  ~y430 -->
    <rect x="142" y="424" width="16" height="16" rx="2" fill="#5FD0C0" opacity="0.85"/>
    <rect x="342" y="424" width="16" height="16" rx="2" fill="none" stroke="#5FD0C0" stroke-width="1.4" stroke-dasharray="2.5 2.5"/>
    <path d="M158 432 H342" stroke="#5FD0C0" stroke-width="0.8" stroke-dasharray="1 5" opacity="0.5"/>
    <line x1="120" y1="432" x2="64" y2="432" stroke="#5FD0C0" stroke-width="0.8" opacity="0.7"/>
    <circle cx="64" cy="432" r="2" fill="#5FD0C0"/>
    <text x="60" y="428" text-anchor="end" font-size="11" fill="#CFE9E3" font-family="PingFang SC, Noto Sans SC, sans-serif">巩固</text>
    <text x="60" y="442" text-anchor="end" font-size="8.5" fill="#6E7790">睡眠回放</text>
    <line x1="380" y1="432" x2="436" y2="432" stroke="#5FD0C0" stroke-width="0.8" opacity="0.7"/>
    <circle cx="436" cy="432" r="2" fill="#5FD0C0"/>
    <text x="440" y="428" font-size="11" fill="#CFE9E3" font-family="PingFang SC, Noto Sans SC, sans-serif">巩固</text>
    <text x="440" y="442" font-size="8.5" fill="#6E7790">训练 / 微调</text>

    <!-- ORGAN 3 — retrieval (abdomen)  ~y508 -->
    <path d="M150 500 l9 9 -9 9 -9 -9 z" fill="#5FD0C0" opacity="0.9"/>
    <path d="M350 500 l9 9 -9 9 -9 -9 z" fill="none" stroke="#5FD0C0" stroke-width="1.4" stroke-dasharray="2.5 2.5"/>
    <path d="M159 509 H341" stroke="#5FD0C0" stroke-width="0.8" stroke-dasharray="1 5" opacity="0.5"/>
    <line x1="124" y1="509" x2="64" y2="509" stroke="#5FD0C0" stroke-width="0.8" opacity="0.7"/>
    <circle cx="64" cy="509" r="2" fill="#5FD0C0"/>
    <text x="60" y="505" text-anchor="end" font-size="11" fill="#CFE9E3" font-family="PingFang SC, Noto Sans SC, sans-serif">检索</text>
    <text x="60" y="519" text-anchor="end" font-size="8.5" fill="#6E7790">线索重建</text>
    <line x1="376" y1="509" x2="436" y2="509" stroke="#5FD0C0" stroke-width="0.8" opacity="0.7"/>
    <circle cx="436" cy="509" r="2" fill="#5FD0C0"/>
    <text x="440" y="505" font-size="11" fill="#CFE9E3" font-family="PingFang SC, Noto Sans SC, sans-serif">检索</text>
    <text x="440" y="519" font-size="8.5" fill="#6E7790">注意力 / RAG</text>

    <!-- ORGAN 4 — forgetting (lower)  ~y580 -->
    <g>
      <circle cx="150" cy="580" r="7" fill="none" stroke="#5FD0C0" stroke-width="1.4"/>
      <circle cx="150" cy="580" r="3" fill="#5FD0C0"/>
      <circle cx="350" cy="580" r="7" fill="none" stroke="#5FD0C0" stroke-width="1.2" stroke-dasharray="2.5 2.5"/>
      <circle cx="350" cy="580" r="3" fill="none" stroke="#5FD0C0" stroke-width="1"/>
    </g>
    <path d="M157 580 H343" stroke="#5FD0C0" stroke-width="0.8" stroke-dasharray="1 5" opacity="0.5"/>
    <line x1="122" y1="580" x2="64" y2="580" stroke="#5FD0C0" stroke-width="0.8" opacity="0.7"/>
    <circle cx="64" cy="580" r="2" fill="#5FD0C0"/>
    <text x="60" y="576" text-anchor="end" font-size="11" fill="#CFE9E3" font-family="PingFang SC, Noto Sans SC, sans-serif">遗忘</text>
    <text x="60" y="590" text-anchor="end" font-size="8.5" fill="#6E7790">衰减曲线</text>
    <line x1="378" y1="580" x2="436" y2="580" stroke="#5FD0C0" stroke-width="0.8" opacity="0.7"/>
    <circle cx="436" cy="580" r="2" fill="#5FD0C0"/>
    <text x="440" y="576" font-size="11" fill="#CFE9E3" font-family="PingFang SC, Noto Sans SC, sans-serif">遗忘</text>
    <text x="440" y="590" font-size="8.5" fill="#6E7790">窗口截断</text>

    <!-- specimen base ticks -->
    <text x="150" y="664" text-anchor="middle" font-size="8.5" fill="#5E6B8C">生物突触 · 可塑</text>
    <text x="350" y="664" text-anchor="middle" font-size="8.5" fill="#5E6B8C">参数矩阵 · 静态</text>
  </g>

  <rect width="500" height="800" fill="url(#vig)"/>

  <!-- bottom credit -->
  <line x1="40" y1="704" x2="460" y2="704" stroke="#2A3350" stroke-width="1"/>
  <text x="40" y="734" font-size="13" letter-spacing="1" fill="#8E97B3" font-family="ui-monospace, Menlo, monospace">深度综述 · 一个词的两副身体 · 2026</text>
  <text x="40" y="760" font-size="13" fill="#6E7790" font-family="PingFang SC, Noto Sans SC, sans-serif">Rick × Claude</text>
  <text x="460" y="760" text-anchor="end" font-size="11" letter-spacing="1" fill="#5E6B8C" font-family="ui-monospace, Menlo, monospace">FIG · A↔B</text>
</svg>
